<?xml version="1.0" encoding="utf-8"?>
<!-- Generator: Adobe Illustrator 22.1.0, SVG Export Plug-In . SVG Version: 6.00 Build 0)  -->
<svg version="1.1" id="레이어_1" xmlns="http://www.w3.org/2000/svg" xmlns:xlink="http://www.w3.org/1999/xlink" x="0px"
	 y="0px" viewBox="0 0 252 31.2" style="enable-background:new 0 0 252 31.2;" xml:space="preserve">
<style type="text/css">
	.st0{fill:#040000;}
</style>
<g>
	<path class="st0" d="M9,26H5.7c-1.8,0-3.2-0.5-4.2-1.5S0,22.1,0,20.3v-7.4c0-1.8,0.5-3.2,1.5-4.2s2.4-1.5,4.2-1.5H9
		c1.8,0,3.2,0.5,4.2,1.5c1,1,1.5,2.4,1.5,4.2v7.4c0,1.8-0.5,3.2-1.5,4.2C12.2,25.5,10.8,26,9,26z M6.3,22.9h2.3
		c1.8,0,2.7-0.9,2.7-2.7V13c0-1.8-0.9-2.7-2.7-2.7H6.3c-0.9,0-1.6,0.2-2,0.6C3.8,11.4,3.6,12,3.6,13v7.2c0,0.9,0.2,1.6,0.6,2.1
		C4.6,22.7,5.3,22.9,6.3,22.9z"/>
	<path class="st0" d="M23.8,26h-2.3c-0.4,0-0.6-0.2-0.6-0.6V7.8c0-0.4,0.2-0.6,0.6-0.6h2.3c0.4,0,0.6,0.2,0.6,0.6v1.3h0.1
		c0.6-1.3,1.8-2,3.7-2h1.6c1.8,0,3.2,0.5,4.1,1.5s1.4,2.4,1.4,4.3v12.5c0,0.4-0.2,0.6-0.7,0.6h-2.3c-0.4,0-0.6-0.2-0.6-0.6V13
		c0-1.8-0.9-2.7-2.7-2.7h-1.7c-2,0-3,1-3,3.1v12C24.4,25.8,24.2,26,23.8,26z"/>
	<path class="st0" d="M55.1,26h-8c-1.8,0-3.2-0.5-4.2-1.5s-1.5-2.4-1.5-4.2v-7.4c0-1.8,0.5-3.2,1.5-4.2s2.4-1.5,4.2-1.5h3
		c1.8,0,3.2,0.5,4.3,1.5c1,1,1.5,2.4,1.5,4.2v4.7c0,0.4-0.2,0.7-0.7,0.7h-9.9c-0.3,0-0.4,0.1-0.4,0.4v1.6c0,1.8,0.9,2.7,2.7,2.7h7.5
		c0.4,0,0.7,0.2,0.7,0.7v1.9C55.8,25.8,55.6,26,55.1,26z M45.4,15.7H52c0.2,0,0.4-0.1,0.4-0.4V13c0-0.9-0.2-1.6-0.6-2.1
		c-0.4-0.4-1.1-0.6-2-0.6h-2c-0.9,0-1.6,0.2-2,0.6C45.2,11.4,45,12,45,13v2.4C45,15.6,45.1,15.7,45.4,15.7z"/>
	<path class="st0" d="M64.8,31.2h-2.3c-0.4,0-0.6-0.2-0.6-0.6V7.8c0-0.4,0.2-0.6,0.6-0.6h2.3c0.4,0,0.6,0.2,0.6,0.6v1.3h0.1
		c0.6-1.3,1.8-2,3.7-2h1.9c1.8,0,3.1,0.5,4.1,1.5s1.4,2.4,1.4,4.3v7.4c0,1.8-0.5,3.2-1.4,4.2S73,26,71.2,26h-1.9
		c-1.9,0-3.1-0.7-3.7-2h-0.1v6.5C65.4,31,65.2,31.2,64.8,31.2z M68.4,22.9h2c1.8,0,2.7-0.9,2.7-2.7V13c0-1.8-0.9-2.7-2.7-2.7h-2
		c-2,0-3,1-3,3.1v6.3C65.4,21.8,66.4,22.9,68.4,22.9z"/>
	<path class="st0" d="M83,4V0.6C83,0.2,83.2,0,83.6,0H86c0.4,0,0.6,0.2,0.6,0.6V4c0,0.4-0.2,0.6-0.6,0.6h-2.4C83.2,4.6,83,4.4,83,4z
		 M83,25.4V7.8c0-0.4,0.2-0.6,0.6-0.6H86c0.4,0,0.6,0.2,0.6,0.6v17.6c0,0.2,0,0.4-0.1,0.5C86.4,26,86.2,26,86,26h-2.4
		C83.2,26,83,25.8,83,25.4z"/>
	<path class="st0" d="M95,26h-2.8c-0.5,0-0.7-0.2-0.4-0.6l4.9-9l-4.8-8.6c-0.3-0.4-0.2-0.6,0.3-0.6h2.8c0.5,0,0.8,0.2,1,0.6l3,6.4
		h0.1l2.8-6.4c0.2-0.4,0.5-0.6,0.9-0.6h2.8c0.5,0,0.6,0.2,0.4,0.6l-4.7,8.6l5,9c0.2,0.4,0.1,0.6-0.3,0.6h-2.9
		c-0.4,0-0.7-0.2-0.9-0.6l-3.1-6.5H99l-3.1,6.5C95.8,25.8,95.5,26,95,26z"/>
	<path class="st0" d="M124.8,26h-8c-1.8,0-3.2-0.5-4.2-1.5s-1.5-2.4-1.5-4.2v-7.4c0-1.8,0.5-3.2,1.5-4.2s2.4-1.5,4.2-1.5h3
		c1.8,0,3.2,0.5,4.3,1.5c1,1,1.5,2.4,1.5,4.2v4.7c0,0.4-0.2,0.7-0.7,0.7H115c-0.3,0-0.4,0.1-0.4,0.4v1.6c0,1.8,0.9,2.7,2.7,2.7h7.5
		c0.4,0,0.7,0.2,0.7,0.7v1.9C125.5,25.8,125.2,26,124.8,26z M115,15.7h6.6c0.2,0,0.4-0.1,0.4-0.4V13c0-0.9-0.2-1.6-0.6-2.1
		c-0.4-0.4-1.1-0.6-2-0.6h-2c-0.9,0-1.6,0.2-2,0.6c-0.4,0.4-0.6,1.1-0.6,2.1v2.4C114.7,15.6,114.8,15.7,115,15.7z"/>
	<path class="st0" d="M134.6,26h-2.3c-0.4,0-0.6-0.2-0.6-0.6V0.6c0-0.4,0.2-0.6,0.6-0.6h2.3c0.4,0,0.6,0.2,0.6,0.6v24.8
		C135.3,25.8,135.1,26,134.6,26z"/>
	<path class="st0" d="M159.3,26h-6.8c-0.4,0-0.6-0.2-0.6-0.6v-1.8c0-0.4,0.2-0.6,0.6-0.6h6.2c1.6,0,2.4-0.6,2.4-1.7v-0.4
		c0-1-0.6-1.7-1.7-2.3l-4-1.9c-1.3-0.6-2.2-1.2-2.7-2c-0.6-0.7-0.9-1.7-0.9-2.8c0-3.2,1.8-4.8,5.3-4.8h6.1c0.4,0,0.6,0.2,0.6,0.6
		v1.8c0,0.4-0.2,0.6-0.6,0.6h-5.4c-0.7,0-1.3,0.1-1.7,0.4c-0.4,0.3-0.6,0.6-0.6,1V12c0,0.8,0.6,1.5,1.9,2.1l4.1,2.1
		c1.3,0.6,2.2,1.2,2.6,2c0.5,0.8,0.7,1.8,0.7,3C164.8,24.4,163,26,159.3,26z"/>
	<path class="st0" d="M171,10.3h-1.8c-0.2,0-0.4,0-0.5-0.1c-0.1-0.1-0.1-0.2-0.1-0.5V7.8c0-0.4,0.2-0.6,0.6-0.6h1.8
		c0.2,0,0.4-0.1,0.4-0.4V3.4c0-0.4,0.2-0.6,0.7-0.6h2.3c0.4,0,0.6,0.2,0.6,0.6v3.3c0,0.2,0.1,0.4,0.4,0.4h3.4c0.4,0,0.7,0.2,0.7,0.6
		v1.9c0,0.4-0.2,0.6-0.7,0.6h-3.4c-0.3,0-0.4,0.1-0.4,0.4v9.5c0,1.8,0.9,2.7,2.8,2.7h1.4c0.4,0,0.7,0.2,0.7,0.6v1.9
		c0,0.4-0.2,0.6-0.7,0.6h-2c-1.8,0-3.3-0.5-4.3-1.5c-1-1-1.6-2.4-1.6-4.2v-9.7C171.4,10.4,171.3,10.3,171,10.3z"/>
	<path class="st0" d="M192.2,26h-1.7c-1.8,0-3.1-0.5-4.1-1.5s-1.4-2.4-1.4-4.2V7.8c0-0.4,0.2-0.6,0.6-0.6h2.3c0.4,0,0.6,0.2,0.6,0.6
		v12.4c0,1.8,0.9,2.7,2.7,2.7h1.8c2,0,3-1,3-3.1v-12c0-0.4,0.2-0.6,0.6-0.6h2.3c0.4,0,0.7,0.2,0.7,0.6v17.6c0,0.4-0.2,0.6-0.7,0.6
		h-2.3c-0.4,0-0.6-0.2-0.6-0.6V24H196C195.4,25.4,194.1,26,192.2,26z"/>
	<path class="st0" d="M213.2,26h-1.9c-1.8,0-3.1-0.5-4.1-1.5c-1-1-1.4-2.4-1.4-4.2v-7.4c0-1.9,0.5-3.3,1.4-4.3
		c0.9-1,2.3-1.5,4.1-1.5h1.9c1.9,0,3.1,0.7,3.7,2h0.1V0.6c0-0.4,0.2-0.6,0.6-0.6h2.4c0.4,0,0.6,0.2,0.6,0.6v24.8
		c0,0.4-0.2,0.6-0.6,0.6h-2.4c-0.4,0-0.6-0.2-0.6-0.6V24h-0.1C216.4,25.4,215.1,26,213.2,26z M217.1,19.7v-6.3c0-2.1-1-3.1-3-3.1h-2
		c-1.8,0-2.7,0.9-2.7,2.7v7.1c0,1.8,0.9,2.7,2.7,2.7h2C216.1,22.9,217.1,21.8,217.1,19.7z"/>
	<path class="st0" d="M227.4,4V0.6c0-0.4,0.2-0.6,0.6-0.6h2.4c0.4,0,0.6,0.2,0.6,0.6V4c0,0.4-0.2,0.6-0.6,0.6H228
		C227.6,4.6,227.4,4.4,227.4,4z M227.4,25.4V7.8c0-0.4,0.2-0.6,0.6-0.6h2.4c0.4,0,0.6,0.2,0.6,0.6v17.6c0,0.2,0,0.4-0.1,0.5
		c-0.1,0.1-0.2,0.1-0.5,0.1H228C227.6,26,227.4,25.8,227.4,25.4z"/>
	<path class="st0" d="M246.2,26H243c-1.8,0-3.2-0.5-4.2-1.5c-1-1-1.5-2.4-1.5-4.2v-7.4c0-1.8,0.5-3.2,1.5-4.2c1-1,2.4-1.5,4.2-1.5
		h3.3c1.8,0,3.2,0.5,4.2,1.5c1,1,1.5,2.4,1.5,4.2v7.4c0,1.8-0.5,3.2-1.5,4.2C249.4,25.5,248,26,246.2,26z M243.5,22.9h2.3
		c1.8,0,2.7-0.9,2.7-2.7V13c0-1.8-0.9-2.7-2.7-2.7h-2.3c-0.9,0-1.6,0.2-2,0.6c-0.4,0.4-0.6,1.1-0.6,2.1v7.2c0,0.9,0.2,1.6,0.6,2.1
		C241.9,22.7,242.6,22.9,243.5,22.9z"/>
</g>
</svg>
